<?xml version="1.0" encoding="utf-8"?>
<!-- Generator: Adobe Illustrator 19.0.0, SVG Export Plug-In . SVG Version: 6.00 Build 0)  -->
<svg version="1.1" id="Capa_1" xmlns="http://www.w3.org/2000/svg" xmlns:xlink="http://www.w3.org/1999/xlink" x="0px" y="0px"
	 viewBox="0 0 595.3 841.9" style="enable-background:new 0 0 595.3 841.9;" xml:space="preserve">
<style type="text/css">
	.st0{fill:#F6F6F6;}
	.st1{fill:#090909;}
</style>
<g>
	<path class="st1" d="M305.6,630.3c-14.6,0-29.2,0-43.8,0c-76,0-152,0-228-0.1c-0.9,0-1.8,0-2.6,0c-1.5,0-1.6-0.1-1.6-1.5c0-3.7,0-7.4,0-11.2
		c0-1.7-0.2-1.8-1.9-2c-4.1-0.4-7.9-1.5-10.8-4.6c-3.1-3.4-2.8-7.1,0.3-10.2c2.9-2.8,6.6-3.9,10.6-4.3c1.9-0.2,2-0.3,1.8-2.2
		c-0.1-1-0.1-2.1,0-3.1c0-1-0.3-1.5-1.4-1.7c-2.8-0.3-5.6-0.9-8.1-2.3c-2.3-1.3-4.2-3-5-5.7c-0.8-2.6,0.2-4.7,1.9-6.6
		c2.4-2.7,5.6-3.8,9-4.4c0.9-0.2,1.7-0.2,2.6-0.3c0.7-0.1,1.1-0.4,1.1-1.1c0-1.5,0-3,0-4.6c0-1.1-0.8-1.2-1.6-1.2
		c-4-0.4-7.8-1.5-10.7-4.4c-3.7-3.7-3-7.9,0.6-11c2.8-2.4,6.2-3.4,9.8-3.7c2-0.1,2.2-0.3,2-2.3c-0.1-0.9,0-1.8,0-2.6
		c0-1.8-0.2-1.9-2-2.2c-2.1-0.4-4.2-0.8-6.2-1.6c-2.2-0.8-4.1-2.1-5.4-4.2c-1.6-2.6-1.7-5.2,0.2-7.7c1.8-2.5,4.4-3.9,7.3-4.7
		c1.7-0.5,3.5-0.6,5.2-1c0.4-0.1,0.9-0.7,1-1.1c0.1-1.5,0-3,0-4.6c0-0.9-0.5-1.1-1.3-1.2c-3.3-0.3-6.5-1.1-9.4-3
		c-2.2-1.5-3.7-3.3-4.1-5.9c-0.4-2.3,0.7-4.3,2.2-5.8c2.6-2.7,6-3.8,9.5-4.3c3.4-0.5,3,0,3-3.3c0-0.7,0-1.4,0-2.2
		c0-1.4-0.2-1.6-1.6-1.7c-3-0.2-5.8-0.9-8.4-2.5c-1.8-1.1-3.3-2.5-4.2-4.4c-1.5-3.1,0.1-6.3,1.9-7.9c2.8-2.6,6.2-3.8,10-4.2
		c0.4,0,0.7-0.1,1.1-0.1c0.9,0,1.3-0.5,1.3-1.4c0-1.4,0-2.8,0-4.2c0-1-0.4-1.4-1.4-1.4c-2.8-0.2-5.5-0.8-8-2.1c-2-1-3.6-2.5-4.7-4.5
		c-1.3-2.6-0.8-5.7,1.4-7.9c2.4-2.5,5.4-3.6,8.7-4.3c0.9-0.2,1.9-0.3,2.8-0.4c0.8-0.1,1.2-0.5,1.2-1.3c0-1.4,0-2.8,0-4.2
		c0-1-0.5-1.4-1.5-1.4c-3-0.1-5.8-0.9-8.3-2.4c-1.9-1.1-3.5-2.5-4.4-4.6c-1.6-3.3,0.1-6.5,2.3-8.3c2.8-2.5,6.3-3.5,9.9-3.8
		c2.1-0.2,2.2-0.3,2-2.4c-0.1-1,0-1.9,0-2.9c0-1.5-0.2-1.7-1.7-1.9c-1.7-0.3-3.5-0.5-5.1-1.1c-2.7-0.8-5-2.2-6.7-4.6
		c-2.3-3.4-1.3-6.7,1.2-9.2c2.2-2.2,5-3.3,8-3.9c1.1-0.2,2.1-0.4,3.2-0.5c0.8-0.1,1.2-0.4,1.2-1.2c0-1.5,0-3,0-4.4
		c0-0.9-0.4-1.2-1.2-1.3c-2.9-0.2-5.7-0.9-8.4-2.3c-2.7-1.5-4.7-3.5-5.2-6.7c-0.3-2.1,0.6-4,2-5.5c2-2.2,4.6-3.4,7.5-4
		c1.3-0.3,2.7-0.6,4-0.7c0.9-0.1,1.3-0.5,1.3-1.4c0-1.4,0-2.7,0-4.1c0-1.1-0.5-1.5-1.5-1.5c-3.7-0.1-7-1.2-9.9-3.5
		c-3.8-2.9-4.7-7.4-1.1-11.1c2.9-2.9,6.6-4.1,10.6-4.5c1.7-0.2,1.9-0.3,1.9-2c0-1.2,0-2.3,0-3.5c0-1-0.4-1.6-1.5-1.6
		c-2.8-0.1-5.5-0.9-8-2.2c-1.7-0.9-3.2-2.1-4.2-3.8c-1.9-3-1.3-5.8,0.8-8.3c2.3-2.7,5.5-4,9-4.6c0.7-0.1,1.5-0.3,2.2-0.4
		c1.7-0.3,1.7-0.3,1.7-2c0-1.1,0-2.2,0-3.2c0-1.4-0.2-1.7-1.6-1.8c-3-0.2-5.8-1-8.4-2.5c-1.8-1.1-3.3-2.5-4.2-4.5
		c-1.4-3.1,0-6.1,2-7.9c3-2.8,6.7-4,10.7-4.2c1.1-0.1,1.6-0.5,1.6-1.6c0-1.3-0.1-2.6,0-3.8c0-1.2-0.5-1.6-1.7-1.7
		c-3.3-0.1-6.3-1-9-2.9c-1.1-0.8-2.1-1.8-2.9-2.9c-1.9-2.7-1.6-5.9,0.7-8.4c2.4-2.6,5.5-4,9-4.6c0.9-0.2,1.9-0.1,2.8-0.4
		c0.4-0.1,1-0.7,1-1.2c0.1-1.5,0.1-3,0.1-4.6c0-1-0.7-1.1-1.5-1.2c-2.8-0.2-5.5-0.7-7.9-2.2c-1.4-0.9-2.9-1.9-3.9-3.2
		c-2.5-3.2-2.1-6.1,0.5-9.1c2.5-2.8,5.8-4,9.4-4.5c3.3-0.5,3.3-0.4,3.3-3.7c0-4.4,0-8.8,0-13.2c0-1,0.3-1.3,1.3-1.3
		c74.8,0,149.7,0.1,224.5,0c50.3,0,100.6-0.2,150.9-0.2c35.4,0,70.9,0,106.3,0c2.8,0,5.6,0,8.3,0c19.8,0.1,39.7,0.2,59.5,0.2
		c1,0,1.2,0.4,1.2,1.3c0,2.7,0,5.4,0,8.2c0,102.3,0,204.5,0,306.8c0,27.3,0,54.6,0,81.9c0,3.8,0.1,7.6,0.2,11.3
		c0,2.6-0.1,5.3-0.1,7.9c0,0.9-0.3,1.1-1.2,1.1c-20.8,0-41.5,0-62.3,0c-27.5,0-55,0.1-82.4,0.1c-6.4,0-12.7-0.1-19.1-0.1
		c-16.2,0-32.4,0.1-48.6,0.1c-9.8,0-19.7-0.1-29.5-0.1C327.5,630.2,316.6,630.2,305.6,630.3C305.6,630.2,305.6,630.3,305.6,630.3z
		 M305.6,625.8C305.6,625.8,305.6,625.8,305.6,625.8c90.1,0,180.2,0,270.2,0c1,0,1.3-0.4,1.3-1.4c0-1.7,0-3.4,0-5.2
		c0-132.2,0-264.4,0-396.6c0-1.9,0-3.8,0-5.8c0-1.4-0.2-1.6-1.6-1.6c-47.9-0.1-95.7-0.2-143.6-0.3c-58.7,0-117.4,0-176.2,0
		c-73.3,0-146.6,0-220,0c-1.5,0-1.7,0.2-1.7,1.6c0,3.8,0,7.6,0,11.4c0,4.6,0,9.3,0,13.9c0,1.4,0.4,1.7,1.6,1.1
		c0.8-0.4,1.6-0.7,2.4-1.2c0.9-0.5,1.3-1.2,1-2.4c-0.6-1.9,0.1-3.8,1.7-4.9c1.6-1.1,3.3-1.2,5-0.2c1.7,1,2.4,2.5,2.2,4.4
		c-0.2,1.9-1.3,3.1-3,3.8c-0.5,0.2-1.1,0.5-1.5,0.9c-2.1,2.5-4.8,3.8-7.8,4.5c-1.2,0.3-1.6,0.8-1.6,1.9c0,4,0,8.1,0,12.1
		c0,2.1,0,4.2,0,6.2c0,1,0.4,1.4,1.3,1c1-0.4,1.9-0.9,2.9-1.4c0.9-0.5,1.1-1.1,0.8-2.1c-0.8-2.6,0.6-5,3.2-5.7
		c2.3-0.7,4.9,0.7,5.6,3.1c0.7,2.4-0.6,4.9-3.1,5.7c-0.4,0.1-0.9,0.3-1.1,0.6c-2.1,2.7-5,4-8.2,4.8c-1,0.2-1.4,0.7-1.3,1.8
		c0.1,3.6,0,7.2,0,10.8c0,2.5,0,5,0,7.6c0,1.3,0.3,1.5,1.5,1c0.8-0.3,1.5-0.7,2.3-1.1c1.2-0.6,1.6-1.3,1.2-2.7
		c-0.7-2.4,1.1-5,3.4-5.5c2.5-0.5,4.9,1,5.4,3.4c0.6,2.4-0.8,4.7-3.3,5.5c-0.4,0.1-0.8,0.3-1,0.6c-2.1,2.7-5,4-8.2,4.9
		c-1.1,0.3-1.4,0.8-1.4,1.8c0,3.6,0,7.1,0,10.7c0,2.5,0,5,0,7.4c0,1.4,0.2,1.6,1.5,1.1c0.8-0.3,1.7-0.8,2.5-1.2
		c1.1-0.5,1.3-1.2,1-2.4c-0.8-2.7,1.3-5.5,4-5.7c2.2-0.1,4.3,1.4,4.8,3.5c0.5,2.3-0.6,4.4-2.8,5.3c-0.5,0.2-1.1,0.4-1.4,0.8
		c-2.1,2.6-5,4-8.1,4.8c-1.1,0.3-1.5,0.8-1.5,1.9c0,4.2,0,8.5,0,12.7c0,1.9,0,3.8,0,5.6c0,1.1,0.4,1.4,1.4,0.9
		c0.9-0.4,1.9-0.9,2.8-1.4c0.8-0.4,1.2-1,0.8-2.1c-0.8-2.6,0.6-5,3.2-5.8c2.2-0.6,4.7,0.8,5.5,3c0.8,2.4-0.6,5-3.1,5.8
		c-0.4,0.1-0.9,0.3-1.1,0.6c-2.1,2.6-5,4-8.2,4.8c-0.8,0.2-1.3,0.5-1.3,1.5c0,6.2,0,12.5,0,18.7c0,1,0.5,1.3,1.4,1
		c1.1-0.5,2.2-1,3.3-1.7c0.6-0.3,0.6-0.9,0.5-1.7c-0.2-1.1-0.3-2.4,0.1-3.4c0.8-2.1,2.9-3,5.1-2.6c1.8,0.3,3.4,2.1,3.5,4
		c0.2,2.3-1,4-3.1,4.8c-0.4,0.2-1,0.3-1.2,0.7c-2.1,2.6-4.8,4-8,4.7c-1.2,0.3-1.6,0.9-1.6,2.1c0.1,3.3,0,6.6,0,9.8
		c0,2.8,0,5.6,0,8.4c0,1.1,0.3,1.3,1.3,0.9c1-0.4,2-0.9,2.9-1.4c0.9-0.5,1.2-1.1,0.8-2.2c-0.9-3,1.4-6,4.5-5.8
		c2.1,0.1,4.1,1.8,4.3,3.8c0.3,2.3-1,4.5-3.2,5.2c-0.4,0.1-0.9,0.4-1.2,0.7c-1.7,2.1-3.9,3.4-6.4,4.2c-3.1,1-3.1,1-3.1,4.3
		c0,5.4,0,10.8,0,16.2c0,1.5,0.3,1.7,1.6,1.1c0.9-0.4,1.7-0.8,2.6-1.3c0.9-0.5,1.2-1.1,0.9-2.2c-0.9-2.9,1.2-5.8,4.1-5.8
		c2.3-0.1,4.3,1.5,4.7,3.7c0.4,2.3-0.8,4.4-3,5.2c-0.5,0.2-1,0.4-1.3,0.8c-2.1,2.6-5,4-8.1,4.8c-1.1,0.3-1.4,0.7-1.4,1.8
		c0,5.7,0,11.4,0,17.2c0,0.5,0,1,0,1.6c0,0.8,0.4,1.1,1.2,0.8c1-0.4,2-0.9,2.9-1.4c0.9-0.5,1.3-1.1,0.9-2.2
		c-0.8-2.5,0.6-4.9,3.1-5.7c2.2-0.7,4.7,0.6,5.6,2.8c0.8,2.2-0.3,4.7-2.5,5.8c-0.9,0.4-1.7,1.1-2.5,1.7c-0.3,0.3-0.6,0.6-1,0.9
		c-1.9,1.5-4,2.4-6.3,3c-0.7,0.2-1.4,0.4-1.4,1.3c0,6.4,0,12.7,0,19.1c0,0.9,0.5,1.2,1.2,0.9c0.8-0.3,1.5-0.7,2.3-1
		c1.3-0.6,1.9-1.4,1.4-3c-0.6-2.3,1-4.7,3.3-5.2c2.6-0.6,5,0.8,5.6,3.3c0.6,2.3-0.8,4.7-3.1,5.5c-0.4,0.1-0.9,0.3-1.1,0.6
		c-2.2,2.8-5.2,4.2-8.5,4.9c-0.7,0.2-1,0.5-1,1.2c0,6.4,0,12.7,0,19.1c0,0.9,0.5,1.2,1.2,0.8c1-0.4,2-0.9,3-1.4
		c0.9-0.4,1.1-1.1,0.8-2.1c-0.7-2.4,0.7-5,3-5.7c2.3-0.7,4.9,0.7,5.7,3c0.8,2.4-0.6,5-3.1,5.8c-0.4,0.1-0.8,0.3-1,0.5
		c-2.2,2.8-5.1,4.1-8.4,4.9c-0.9,0.2-1.2,0.7-1.2,1.6c0,5.6,0,11.1,0,16.7c0,0.7,0,1.4,0,2.2c0,0.8,0.4,1.1,1.2,0.8
		c1-0.4,2-0.9,2.9-1.4c0.9-0.5,1.2-1.1,0.9-2.3c-0.8-2.9,1.2-5.7,4.1-5.8c2.3-0.1,4.3,1.4,4.8,3.5c0.5,2.4-0.8,4.6-3.1,5.4
		c-0.4,0.1-0.9,0.3-1.1,0.6c-2.1,2.8-5.1,4-8.3,4.9c-1.1,0.3-1.3,0.8-1.3,1.8c0,2.6,0,5.3,0,7.9c0,3.4,0,6.9,0,10.3
		c0,1.4,0.3,1.6,1.6,1c0.8-0.4,1.6-0.8,2.5-1.2c0.9-0.5,1.3-1.1,1-2.2c-0.6-2.1,0.2-4.1,1.9-5.1c2.5-1.5,5.4-0.6,6.6,1.9
		c1.1,2.4,0,5.2-2.6,6.2c-0.5,0.2-1.1,0.4-1.4,0.8c-2.2,2.6-5,4-8.3,4.8c-1,0.2-1.3,0.7-1.3,1.7c0,1.8,0,3.5,0,5.3
		c0,4.4,0,8.7,0,13.1c0,1.4,0.3,1.6,1.6,1.1c0.8-0.4,1.6-0.8,2.5-1.2c0.9-0.5,1.3-1.1,1-2.2c-0.7-2.6,0.7-5,3.2-5.7
		c2.3-0.7,4.8,0.8,5.5,3c0.7,2.4-0.6,4.9-3,5.7c-0.4,0.1-0.9,0.3-1.1,0.6c-2.1,2.7-5,4.1-8.3,4.9c-1,0.2-1.3,0.8-1.3,1.8
		c0,3.2,0,6.4,0,9.6c0,2.9,0,5.8,0,8.8c0,1.2,0.3,1.4,1.4,1c1-0.4,1.9-0.9,2.8-1.4c0.9-0.5,1.1-1.1,0.8-2.2c-0.7-2.3,0.7-5,2.9-5.6
		c2.4-0.7,5,0.6,5.8,2.9c0.8,2.3-0.4,4.8-2.8,5.7c-0.5,0.2-1.1,0.4-1.4,0.8c-2.1,2.6-5,4-8.1,4.7c-1.1,0.2-1.4,0.8-1.4,1.7
		c0,2.4,0,4.8,0,7.2c0,1.6,0.1,1.7,1.7,1.7c75.9,0,151.8-0.1,227.7-0.1C277.6,625.8,291.6,625.8,305.6,625.8z M29.7,501.3
		C29.7,501.3,29.7,501.3,29.7,501.3c0-1.3,0-2.6,0-3.8c0-0.8-0.2-1.5-1.2-1.4c-3.1,0.3-6,0.9-8.2,3.3c-1.1,1.2-1.2,2.4-0.1,3.6
		c2.3,2.5,5.3,3.1,8.4,3.3c0.9,0.1,1.1-0.6,1.1-1.4C29.7,503.7,29.7,502.5,29.7,501.3z M29.6,291.6
		C29.6,291.6,29.6,291.6,29.6,291.6c0-1.3,0-2.6,0-3.9c0-0.8-0.3-1.4-1.2-1.3c-2.9,0.4-5.8,1-8,3.1c-1.3,1.3-1.4,2.8,0,4.1
		c2.2,2.2,5.1,2.8,8.1,3.1c0.8,0.1,1.1-0.5,1.1-1.2C29.6,294.2,29.6,292.9,29.6,291.6z M29.6,239.2
		C29.6,239.2,29.6,239.2,29.6,239.2c0-1.2,0-2.3,0-3.5c0-1.4-0.3-1.7-1.7-1.6c-2.3,0.2-4.5,0.9-6.5,2.2c-2.1,1.4-2.5,3.3-0.9,5
		c2.2,2.2,5.1,2.8,8.1,3.1c0.8,0.1,1.1-0.5,1.1-1.3C29.6,241.7,29.6,240.4,29.6,239.2z M29.7,317.9
		C29.7,317.9,29.6,317.9,29.7,317.9c-0.1-1.3-0.1-2.6-0.1-4c0-0.8-0.3-1.3-1.1-1.2c-3,0.3-6,0.9-8.3,3.3c-1.1,1.2-1.1,2.5,0.1,3.7
		c2.2,2.3,5.1,3,8.2,3.2c0.9,0.1,1.3-0.5,1.2-1.4C29.6,320.3,29.7,319.1,29.7,317.9z M29.6,527.5c0-1.3,0-2.6,0-3.8
		c0-1-0.5-1.5-1.5-1.4c-2.4,0.4-4.8,0.9-6.8,2.3c-2.3,1.6-2.5,3.6-0.3,5.4c2.2,1.7,4.8,2.3,7.5,2.5c0.8,0.1,1.1-0.4,1.1-1.2
		C29.6,530,29.6,528.7,29.6,527.5z M29.6,265.4c0-1.3,0-2.6,0-4c0-0.7-0.3-1.2-1.1-1.2c-3.1,0.2-6,0.9-8.3,3.2
		c-1.1,1.1-1.2,2.5-0.1,3.6c2.3,2.4,5.2,3.1,8.4,3.3c0.7,0,1-0.5,1-1.2C29.6,267.9,29.6,266.7,29.6,265.4z M29.6,579.9
		c0-1.3,0-2.6,0-3.8c0-1-0.4-1.4-1.4-1.3c-2.5,0.2-4.9,0.9-7,2.3c-2.2,1.5-2.5,3.4-0.5,5.2c2.2,1.9,4.9,2.5,7.8,2.7
		c0.8,0,1-0.5,1-1.2C29.6,582.5,29.6,581.2,29.6,579.9z M29.6,553.6C29.6,553.6,29.6,553.6,29.6,553.6c0-1.3,0-2.6,0-3.8
		c0-0.9-0.5-1.3-1.4-1.2c-2.4,0.3-4.8,0.8-6.9,2.3c-1.7,1.2-2.9,3-0.9,4.9c2.2,2.2,5.1,2.8,8.1,3.1c0.8,0.1,1.1-0.4,1.1-1.2
		C29.6,556.2,29.6,554.9,29.6,553.6z M29.6,448.9C29.6,448.9,29.6,448.9,29.6,448.9c0.1-1.3,0-2.6,0.1-3.8c0-0.8-0.3-1.4-1.2-1.3
		c-3.2,0.3-6.2,1-8.4,3.4c-0.9,1-0.9,2.3,0.1,3.3c2.2,2.5,5.2,3.1,8.3,3.4c0.8,0.1,1.2-0.4,1.2-1.2
		C29.6,451.4,29.6,450.1,29.6,448.9z M29.6,475c0-1.3,0-2.6,0-4c0-0.9-0.4-1.3-1.3-1.2c-3,0.4-5.9,1-8.1,3.3c-1,1-1.1,2.4,0,3.5
		c2.2,2.4,5.2,3.1,8.3,3.4c0.8,0.1,1.1-0.5,1.1-1.2C29.6,477.6,29.6,476.3,29.6,475z M29.6,422.6c0-1.3,0-2.6,0-4
		c0-0.8-0.4-1.3-1.2-1.2c-2.5,0.4-5.1,0.9-7.2,2.4c-2.2,1.6-2.4,3.3-0.3,5.1c2.2,1.9,4.9,2.6,7.8,2.7c0.7,0,1-0.4,1-1.1
		C29.6,425.3,29.6,424,29.6,422.6z M29.6,606.1c0-1.3,0-2.6,0-3.9c0-0.7-0.3-1.3-1.1-1.2c-2.8,0.2-5.5,0.9-7.7,2.8
		c-1.9,1.6-1.7,3.4,0.3,4.9c2.1,1.6,4.6,2.2,7.2,2.6c0.9,0.1,1.4-0.3,1.4-1.2C29.6,608.6,29.6,607.4,29.6,606.1z M29.6,343.9
		c0-1.2,0-2.5,0-3.7c0-1.1-0.5-1.5-1.5-1.3c-2.4,0.3-4.7,0.9-6.8,2.2c-2.3,1.5-2.6,3.5-0.6,5.2c2.2,1.9,4.9,2.5,7.8,2.7
		c0.8,0,1.1-0.5,1.1-1.3C29.6,346.5,29.6,345.2,29.6,343.9z M29.6,396.4C29.6,396.4,29.6,396.4,29.6,396.4c0-1.3,0-2.6,0-3.8
		c0-0.9-0.4-1.4-1.3-1.2c-2.5,0.3-4.9,0.9-7,2.3c-2.5,1.8-2.5,3.9,0.1,5.6c2,1.4,4.3,2,6.7,2.2c1,0.1,1.5-0.3,1.5-1.3
		C29.6,398.8,29.6,397.6,29.6,396.4z M29.6,370.2c0-1.3,0-2.6,0-4c0-0.8-0.4-1.2-1.2-1.1c-3,0.3-5.8,1-8.1,3.2
		c-1.1,1.1-1.2,2.5-0.2,3.6c2.3,2.5,5.3,3.1,8.4,3.4c0.8,0.1,1-0.5,1-1.2C29.6,372.8,29.6,371.5,29.6,370.2z"/>
	<path class="st0" d="M305.6,625.8c-14,0-28,0-42,0c-75.9,0-151.8,0.1-227.7,0.1c-1.6,0-1.7-0.1-1.7-1.7c0-2.4,0-4.8,0-7.2
		c0-1,0.3-1.5,1.4-1.7c3.2-0.7,6-2.1,8.1-4.7c0.3-0.4,0.9-0.6,1.4-0.8c2.4-0.9,3.6-3.4,2.8-5.7c-0.8-2.3-3.4-3.7-5.8-2.9
		c-2.1,0.7-3.6,3.3-2.9,5.6c0.3,1.1,0.1,1.7-0.8,2.2c-0.9,0.5-1.8,1-2.8,1.4c-1,0.4-1.4,0.2-1.4-1c0-2.9,0-5.8,0-8.8
		c0-3.2,0-6.4,0-9.6c0-1,0.3-1.5,1.3-1.8c3.3-0.8,6.2-2.2,8.3-4.9c0.2-0.3,0.7-0.5,1.1-0.6c2.5-0.9,3.8-3.3,3-5.7
		c-0.7-2.3-3.3-3.7-5.5-3c-2.6,0.7-4,3.1-3.2,5.7c0.3,1.1,0,1.8-1,2.2c-0.8,0.4-1.6,0.9-2.5,1.2c-1.3,0.5-1.6,0.3-1.6-1.1
		c0-4.4,0-8.7,0-13.1c0-1.8,0-3.5,0-5.3c0-1,0.3-1.5,1.3-1.7c3.2-0.7,6.1-2.2,8.3-4.8c0.3-0.4,0.9-0.6,1.4-0.8
		c2.5-1.1,3.7-3.9,2.6-6.2c-1.2-2.5-4.1-3.4-6.6-1.9c-1.7,1-2.5,3-1.9,5.1c0.3,1.1,0,1.8-1,2.2c-0.8,0.4-1.6,0.9-2.5,1.2
		c-1.3,0.5-1.6,0.3-1.6-1c0-3.4,0-6.9,0-10.3c0-2.6,0-5.3,0-7.9c0-1,0.2-1.5,1.3-1.8c3.2-0.9,6.2-2.1,8.3-4.9
		c0.2-0.3,0.7-0.5,1.1-0.6c2.3-0.8,3.6-3,3.1-5.4c-0.4-2.1-2.4-3.6-4.8-3.5c-2.8,0.1-4.9,2.9-4.1,5.8c0.3,1.1,0,1.8-0.9,2.3
		c-1,0.5-1.9,1-2.9,1.4c-0.8,0.3-1.1,0-1.2-0.8c0-0.7,0-1.4,0-2.2c0-5.6,0-11.1,0-16.7c0-0.9,0.3-1.4,1.2-1.6
		c3.3-0.8,6.3-2.2,8.4-4.9c0.2-0.3,0.7-0.4,1-0.5c2.5-0.9,3.9-3.4,3.1-5.8c-0.7-2.3-3.4-3.7-5.7-3c-2.3,0.7-3.8,3.3-3,5.7
		c0.3,1,0.1,1.6-0.8,2.1c-1,0.5-2,1-3,1.4c-0.8,0.3-1.2,0.1-1.2-0.8c0-6.4,0-12.7,0-19.1c0-0.7,0.3-1.1,1-1.2
		c3.3-0.8,6.3-2.2,8.5-4.9c0.2-0.3,0.7-0.5,1.1-0.6c2.3-0.8,3.7-3.2,3.1-5.5c-0.6-2.4-3-3.8-5.6-3.3c-2.2,0.5-3.9,2.9-3.3,5.2
		c0.4,1.6-0.1,2.4-1.4,3c-0.8,0.3-1.5,0.7-2.3,1c-0.8,0.3-1.2,0-1.2-0.9c0-6.4,0-12.7,0-19.1c0-1,0.7-1.2,1.4-1.3
		c2.3-0.6,4.5-1.5,6.3-3c0.3-0.3,0.6-0.6,1-0.9c0.8-0.6,1.6-1.3,2.5-1.7c2.2-1.1,3.3-3.6,2.5-5.8c-0.8-2.2-3.4-3.5-5.6-2.8
		c-2.5,0.8-3.9,3.2-3.1,5.7c0.3,1.1,0,1.8-0.9,2.2c-1,0.5-1.9,0.9-2.9,1.4c-0.8,0.4-1.1,0-1.2-0.8c0-0.5,0-1,0-1.6
		c0-5.7,0-11.4,0-17.2c0-1.1,0.3-1.5,1.4-1.8c3.2-0.8,6-2.2,8.1-4.8c0.3-0.4,0.8-0.6,1.3-0.8c2.2-0.8,3.5-2.9,3-5.2
		c-0.4-2.2-2.4-3.7-4.7-3.7c-2.9,0.1-5,3-4.1,5.8c0.3,1.1,0,1.7-0.9,2.2c-0.8,0.4-1.7,0.9-2.6,1.3c-1.3,0.6-1.6,0.4-1.6-1.1
		c0-5.4,0-10.8,0-16.2c0-3.3,0-3.3,3.1-4.3c2.5-0.8,4.7-2.2,6.4-4.2c0.3-0.3,0.8-0.5,1.2-0.7c2.1-0.7,3.5-2.8,3.2-5.2
		c-0.3-2-2.2-3.7-4.3-3.8c-3.1-0.1-5.5,2.9-4.5,5.8c0.3,1.1,0,1.7-0.8,2.2c-0.9,0.5-1.9,1-2.9,1.4c-1,0.4-1.3,0.2-1.3-0.9
		c0-2.8,0-5.6,0-8.4c0-3.3,0-6.6,0-9.8c0-1.2,0.3-1.8,1.6-2.1c3.2-0.7,5.9-2.1,8-4.7c0.3-0.3,0.8-0.5,1.2-0.7
		c2.1-0.8,3.3-2.6,3.1-4.8c-0.1-1.8-1.7-3.6-3.5-4c-2.2-0.4-4.3,0.5-5.1,2.6c-0.4,1-0.3,2.3-0.1,3.4c0.1,0.8,0.1,1.3-0.5,1.7
		c-1,0.6-2.2,1.2-3.3,1.7c-0.8,0.4-1.4,0.1-1.4-1c0-6.2,0-12.5,0-18.7c0-1,0.5-1.3,1.3-1.5c3.2-0.8,6.1-2.2,8.2-4.8
		c0.3-0.3,0.7-0.5,1.1-0.6c2.5-0.8,3.9-3.4,3.1-5.8c-0.7-2.2-3.3-3.6-5.5-3c-2.6,0.8-4,3.2-3.2,5.8c0.3,1,0,1.6-0.8,2.1
		c-0.9,0.5-1.8,1-2.8,1.4c-1,0.5-1.4,0.2-1.4-0.9c0-1.9,0-3.8,0-5.6c0-4.2,0-8.5,0-12.7c0-1.1,0.4-1.6,1.5-1.9
		c3.1-0.8,6-2.2,8.1-4.8c0.3-0.4,0.9-0.6,1.4-0.8c2.2-0.9,3.4-3.1,2.8-5.3c-0.5-2.1-2.6-3.6-4.8-3.5c-2.7,0.2-4.8,3-4,5.7
		c0.3,1.2,0.1,1.9-1,2.4c-0.8,0.4-1.6,0.8-2.5,1.2c-1.3,0.5-1.5,0.3-1.5-1.1c0-2.5,0-5,0-7.4c0-3.6,0-7.1,0-10.7
		c0-1,0.3-1.6,1.4-1.8c3.2-0.8,6.1-2.1,8.2-4.9c0.2-0.3,0.6-0.5,1-0.6c2.5-0.8,3.8-3.1,3.3-5.5c-0.6-2.4-2.9-3.9-5.4-3.4
		c-2.4,0.5-4.1,3.1-3.4,5.5c0.4,1.4,0,2.1-1.2,2.7c-0.8,0.4-1.5,0.7-2.3,1.1c-1.2,0.5-1.5,0.3-1.5-1c0-2.5,0-5,0-7.6
		c0-3.6,0-7.2,0-10.8c0-1,0.3-1.5,1.3-1.8c3.2-0.8,6.1-2.1,8.2-4.8c0.2-0.3,0.7-0.5,1.1-0.6c2.5-0.8,3.8-3.3,3.1-5.7
		c-0.7-2.4-3.2-3.8-5.6-3.1c-2.6,0.7-3.9,3.2-3.2,5.7c0.3,1,0.1,1.6-0.8,2.1c-1,0.5-1.9,1-2.9,1.4c-0.9,0.4-1.3,0-1.3-1
		c0-2.1,0-4.2,0-6.2c0-4,0-8.1,0-12.1c0-1.2,0.4-1.7,1.6-1.9c3.1-0.7,5.8-2.1,7.8-4.5c0.4-0.4,1-0.7,1.5-0.9c1.8-0.7,2.8-1.9,3-3.8
		c0.2-1.9-0.6-3.4-2.2-4.4c-1.7-1-3.4-0.9-5,0.2c-1.6,1.1-2.3,3-1.7,4.9c0.4,1.2-0.1,1.9-1,2.4c-0.8,0.4-1.6,0.8-2.4,1.2
		c-1.3,0.6-1.6,0.3-1.6-1.1c0-4.6,0-9.3,0-13.9c0-3.8,0-7.6,0-11.4c0-1.5,0.2-1.6,1.7-1.6c73.3,0,146.6,0,220,0
		c58.7,0,117.4,0,176.2,0c47.9,0,95.7,0.2,143.6,0.3c1.4,0,1.6,0.2,1.6,1.6c0,1.9,0,3.8,0,5.8c0,132.2,0,264.4,0,396.6
		c0,1.7,0,3.4,0,5.2c0,1-0.3,1.4-1.3,1.4C485.8,625.8,395.7,625.8,305.6,625.8C305.6,625.8,305.6,625.8,305.6,625.8z"/>
</g>
</svg>
