<svg xmlns="http://www.w3.org/2000/svg" width="1150" height="1150" viewBox="0 0 1150 1150" version="1.1"><path d="M 432.753 195.218 C 431.590 196.086, 430.727 198.919, 430.077 204 C 426.701 230.391, 425.817 237.408, 424.914 245 C 423.095 260.291, 421.140 276.213, 419.022 293 C 417.877 302.075, 416.316 314.900, 415.553 321.500 C 414.050 334.513, 412.594 346.141, 410.963 358.159 C 409.970 365.486, 408.448 377.988, 405.506 403 C 403.928 416.418, 402.420 428.419, 400.963 439.159 C 400.392 443.372, 399.283 452.372, 398.499 459.159 C 397.715 465.947, 396.815 473.075, 396.500 475 C 396.185 476.925, 396.352 479.134, 396.871 479.909 C 397.673 481.106, 779.441 481.899, 780.626 480.706 C 780.739 480.593, 778.671 472.400, 776.032 462.500 C 771.396 445.113, 761.013 405.559, 738.493 319.500 C 732.592 296.950, 726.220 272.650, 724.334 265.500 C 722.447 258.350, 717.971 241.279, 714.387 227.563 C 706.438 197.138, 710.618 200.352, 678.037 199.612 C 628.536 198.486, 566.637 196.975, 529.500 195.986 C 454.858 193.998, 434.602 193.837, 432.753 195.218" stroke="none" fill="#d1edfe" fill-rule="evenodd"/><path d="M 166.577 143.258 C 157.324 145.178, 150.997 153.714, 142.466 175.788 C 135.888 192.806, 131.239 204.380, 125.409 218.254 C 122.923 224.169, 120.064 231.408, 119.055 234.341 C 118.045 237.274, 116.521 241.025, 115.668 242.676 C 114.814 244.326, 112.284 250.587, 110.046 256.589 C 107.807 262.590, 105.492 268.344, 104.902 269.375 C 104.311 270.406, 101.836 276.481, 99.402 282.875 C 96.968 289.269, 94.350 295.625, 93.585 297 C 92.820 298.375, 90.161 304.900, 87.677 311.500 C 85.194 318.100, 80.179 330.700, 76.533 339.500 C 72.888 348.300, 68.096 360.225, 65.884 366 C 63.673 371.775, 60.816 378.750, 59.535 381.500 C 58.255 384.250, 55.848 390.325, 54.187 395 C 52.527 399.675, 50.483 404.850, 49.647 406.500 C 48.810 408.150, 45.799 415.350, 42.956 422.500 C 40.113 429.650, 35.618 440.900, 32.967 447.500 C 30.316 454.100, 26.522 463.550, 24.537 468.500 C 22.552 473.450, 18.952 482.225, 16.538 488 C 8.908 506.250, 9.311 512.474, 18.780 522.584 C 21.827 525.838, 30.639 535.250, 38.362 543.500 C 52.709 558.825, 60.827 567, 61.700 567 C 61.969 567, 65.184 566.148, 68.845 565.106 C 72.505 564.064, 81.013 561.741, 87.750 559.944 C 94.487 558.147, 100 556.250, 100 555.729 C 100 554.805, 74.932 527.615, 68.317 521.365 C 66.493 519.641, 65 518.066, 65 517.865 C 65 517.664, 129.219 517.500, 207.709 517.500 L 350.418 517.500 351.059 520.500 C 351.412 522.150, 352.479 525.300, 353.430 527.500 C 354.382 529.700, 356.871 536.225, 358.962 542 C 361.053 547.775, 368.939 569.375, 376.487 590 C 384.035 610.625, 395.056 640.775, 400.979 657 C 406.901 673.225, 420.625 710.800, 431.476 740.500 C 442.327 770.200, 454.494 803.500, 458.512 814.500 C 462.530 825.500, 469.190 843.725, 473.311 855 C 494.134 911.967, 513.035 963.770, 520.195 983.489 C 524.585 995.583, 528.419 1005.933, 528.714 1006.489 C 529.660 1008.274, 508.321 986.211, 477.500 953.538 C 434.088 907.518, 427.823 900.898, 414.500 886.975 C 407.900 880.078, 396.425 867.971, 389 860.072 C 381.575 852.172, 370.069 840.037, 363.430 833.104 C 356.792 826.172, 348.485 817.350, 344.971 813.500 C 341.457 809.650, 334.260 802, 328.979 796.500 C 314.119 781.024, 298.900 764.995, 282.498 747.542 C 265.163 729.098, 266.364 730.367, 254 717.409 C 248.775 711.933, 238.200 700.734, 230.500 692.522 C 222.800 684.310, 215.336 676.445, 213.913 675.045 C 212.490 673.645, 206.668 667.550, 200.976 661.500 C 195.283 655.450, 183.398 642.873, 174.563 633.550 C 147.899 605.414, 141.613 598.757, 136.071 592.781 C 133.154 589.635, 129.969 586.808, 128.994 586.498 C 126.623 585.745, 91.874 593.792, 90.181 595.486 C 89.028 596.639, 92.672 600.972, 110.077 619.146 C 119.744 629.241, 135.002 645.375, 143.983 655 C 152.964 664.625, 161.929 674.087, 163.906 676.026 C 165.883 677.965, 173.800 686.289, 181.500 694.525 C 189.200 702.761, 198.967 713.099, 203.205 717.500 C 207.442 721.900, 212.582 727.300, 214.627 729.500 C 216.672 731.700, 222.226 737.550, 226.969 742.500 C 231.713 747.450, 239.152 755.325, 243.503 760 C 247.853 764.675, 259.785 777.275, 270.018 788 C 280.252 798.725, 291.944 811.100, 296.001 815.500 C 300.059 819.900, 312.192 832.725, 322.964 844 C 333.737 855.275, 345.681 867.875, 349.507 872 C 356.119 879.130, 364.831 888.317, 387.458 912.021 C 392.981 917.807, 404.250 929.721, 412.500 938.496 C 420.750 947.271, 432.472 959.637, 438.550 965.975 C 444.627 972.314, 452.487 980.650, 456.015 984.500 C 459.544 988.350, 467.207 996.450, 473.044 1002.500 C 484.933 1014.823, 498.138 1028.743, 520.983 1053.036 C 569.276 1104.389, 560.616 1105.339, 621 1042.064 C 630.075 1032.555, 641.103 1021.113, 645.507 1016.637 C 649.911 1012.162, 662.286 999.326, 673.007 988.113 C 683.728 976.900, 696.100 964.063, 700.500 959.587 C 704.900 955.110, 714.800 944.922, 722.500 936.947 C 730.200 928.972, 748.450 910.084, 763.055 894.973 C 836.521 818.967, 833.115 822.801, 827.733 822.182 C 826.143 821.999, 825.237 821.425, 825.604 820.832 C 826.009 820.177, 825.492 820.201, 824.186 820.900 C 819.022 823.664, 801.561 821.549, 795.481 817.423 C 793.518 816.090, 791.283 815, 790.514 815 C 789.746 815, 757.736 847.513, 719.382 887.250 C 681.028 926.988, 643.924 965.350, 636.929 972.500 C 629.935 979.650, 622.364 987.467, 620.106 989.871 C 615.208 995.085, 615.131 994.878, 618.961 986.769 C 621.957 980.426, 637 942.826, 637 941.680 C 637 941.339, 638.085 938.683, 639.412 935.780 C 640.738 932.876, 643.696 925.571, 645.986 919.546 C 648.275 913.521, 650.643 907.671, 651.248 906.546 C 652.535 904.153, 660.199 884.824, 666.928 867 C 669.523 860.125, 672.439 852.987, 673.408 851.137 C 674.376 849.288, 676.700 843.543, 678.572 838.371 C 680.444 833.199, 682.822 827.288, 683.856 825.234 C 684.890 823.180, 687.441 816.775, 689.524 811 C 691.607 805.225, 693.661 800.041, 694.088 799.479 C 694.515 798.918, 696.930 792.906, 699.455 786.121 C 701.980 779.335, 704.564 772.820, 705.197 771.642 C 706.426 769.356, 713.403 751.843, 720.592 733 C 723.006 726.675, 725.647 720.150, 726.462 718.500 C 727.955 715.479, 734.424 699.265, 742.620 678 C 745.057 671.675, 747.663 665.375, 748.409 664 C 749.156 662.625, 751.646 656.368, 753.942 650.095 C 756.239 643.822, 758.932 637.072, 759.927 635.095 C 760.922 633.118, 763.450 626.775, 765.544 621 C 767.638 615.225, 769.910 609.600, 770.593 608.500 C 771.276 607.400, 773.497 602, 775.530 596.500 C 777.563 591, 780.087 584.587, 781.139 582.248 C 782.191 579.910, 784.410 574.311, 786.071 569.807 C 787.732 565.303, 790.580 558.217, 792.401 554.059 C 794.221 549.902, 797.193 542.450, 799.005 537.500 C 800.818 532.550, 802.857 527.600, 803.539 526.500 C 804.220 525.400, 805.312 522.813, 805.966 520.750 C 806.947 517.656, 807.622 516.997, 809.828 516.985 C 857.236 516.726, 1075.271 516.937, 1075.576 517.243 C 1075.814 517.481, 1018.519 577.231, 948.254 650.021 C 824.187 778.548, 817.275 786, 822.124 786 C 829.550 786, 852.842 788.257, 854.634 789.150 C 859.203 791.428, 865.055 789.591, 869.902 784.358 C 873.984 779.951, 913.076 739.362, 929 722.997 C 932.575 719.323, 943.825 707.616, 954 696.982 C 964.175 686.347, 976.550 673.549, 981.500 668.542 C 986.450 663.535, 998.825 650.697, 1009 640.014 C 1019.175 629.331, 1031.550 616.505, 1036.500 611.511 C 1045.819 602.109, 1059.672 587.741, 1088 558.095 C 1097.075 548.598, 1109.238 536.028, 1115.028 530.164 C 1120.818 524.299, 1128.739 515.900, 1132.630 511.500 C 1146.600 495.700, 1147.407 499.458, 1117.588 441.500 C 1098.736 404.857, 1087.385 382.759, 1077.010 362.500 C 1071.940 352.600, 1062.123 333.475, 1055.196 320 C 1048.268 306.525, 1040.258 290.727, 1037.395 284.893 C 1032.422 274.761, 1030.529 272.525, 1027.750 273.502 C 1026.300 274.013, 1021.965 274.892, 1017.073 275.667 C 1015.188 275.966, 1013.100 276.757, 1012.433 277.424 C 1011.765 278.092, 1007.975 279.250, 1004.009 279.998 C 994.414 281.809, 994.033 279.903, 1010.312 311.553 C 1023.100 336.415, 1038.299 366.078, 1083.940 455.250 L 1097.119 481 965.560 481 C 893.202 481, 834 480.616, 834 480.147 C 834 479.678, 831.750 479.453, 829 479.647 C 826.250 479.841, 821.832 480.151, 819.181 480.336 L 814.363 480.672 814.789 475.533 C 815.100 471.779, 814.370 467.446, 812.079 459.456 C 810.354 453.439, 808.716 447.163, 808.438 445.508 C 808.160 443.854, 806.414 436.875, 804.559 430 C 802.704 423.125, 799.583 411.425, 797.624 404 C 795.666 396.575, 792.928 386.225, 791.540 381 C 790.153 375.775, 788.508 369.475, 787.884 367 C 787.260 364.525, 785.274 356.875, 783.470 350 C 781.666 343.125, 778.559 331.200, 776.564 323.500 C 774.569 315.800, 771.192 302.975, 769.061 295 C 766.929 287.025, 763.548 274.200, 761.549 266.500 C 759.550 258.800, 756.364 246.650, 754.470 239.500 C 752.576 232.350, 750.747 225.150, 750.405 223.500 C 750.064 221.850, 748.532 216, 747.003 210.500 C 745.473 205, 743.958 199.037, 743.636 197.250 L 743.050 194 763.275 194.021 C 774.399 194.032, 794.035 194.481, 806.911 195.018 C 819.787 195.555, 837.562 196.031, 846.411 196.076 C 855.260 196.120, 880.050 196.745, 901.500 197.463 C 922.950 198.182, 943.080 198.571, 946.234 198.330 C 951.968 197.890, 951.968 197.890, 954.734 203.411 C 956.255 206.448, 961.949 217.498, 967.387 227.966 C 978.409 249.185, 977.057 248.018, 987.718 245.504 C 991.138 244.698, 994.610 244.297, 995.433 244.613 C 997.024 245.223, 1011.909 242.153, 1013.359 240.916 C 1013.831 240.512, 1013.076 238.004, 1011.681 235.341 C 1010.286 232.678, 1006.910 226, 1004.179 220.500 C 1001.448 215, 995.940 204.200, 991.939 196.500 C 987.937 188.800, 982.981 179.197, 980.925 175.160 C 975.225 163.967, 971.747 162.180, 955.500 162.094 C 949.450 162.062, 929.200 161.583, 910.500 161.029 C 845.839 159.116, 794.468 157.772, 786.500 157.785 C 782.100 157.792, 760.050 157.171, 737.500 156.406 C 714.950 155.641, 695.479 155.212, 694.230 155.454 C 692.982 155.695, 674.982 155.267, 654.230 154.501 C 633.479 153.736, 611.325 153.142, 605 153.181 C 598.675 153.220, 577.300 152.751, 557.500 152.138 C 537.700 151.526, 501.925 150.565, 478 150.003 C 454.075 149.440, 418.075 148.503, 398 147.920 C 377.925 147.337, 356.775 146.859, 351 146.859 C 345.225 146.858, 322.500 146.218, 300.500 145.436 C 278.500 144.654, 259.439 144.219, 258.143 144.470 C 256.846 144.721, 238.621 144.273, 217.643 143.475 C 174.783 141.844, 173.420 141.838, 166.577 143.258 M 178.123 186.141 C 176.266 190.189, 173.949 195.750, 172.974 198.500 C 171.999 201.250, 169.768 206.875, 168.017 211 C 166.265 215.125, 162.896 223.497, 160.530 229.603 C 158.163 235.710, 155.756 241.588, 155.179 242.665 C 154.603 243.742, 152.366 249.320, 150.208 255.061 C 148.050 260.803, 145.369 267.525, 144.250 270 C 143.132 272.475, 140.306 279.450, 137.971 285.500 C 135.635 291.550, 133.389 296.950, 132.979 297.500 C 132.569 298.050, 130.339 303.675, 128.024 310 C 125.709 316.325, 123.178 322.625, 122.400 324 C 121.621 325.375, 119.166 331.403, 116.943 337.396 C 114.720 343.388, 112.228 349.593, 111.405 351.184 C 110.582 352.774, 107.951 359.121, 105.557 365.288 C 97.594 385.801, 91.342 401.449, 89.289 406 C 88.173 408.475, 85.849 414.206, 84.124 418.734 C 82.399 423.263, 79.921 429.338, 78.618 432.234 C 77.315 435.131, 74.594 441.961, 72.571 447.414 C 70.549 452.867, 68.391 458.267, 67.775 459.414 C 67.159 460.561, 65.001 465.860, 62.979 471.188 L 59.303 480.876 71.651 480.688 C 78.443 480.585, 84 480.857, 84 481.294 C 84 483.445, 338.156 481.722, 338.952 479.566 C 339.371 478.430, 340.008 474.350, 340.368 470.500 C 340.727 466.650, 341.476 460.350, 342.031 456.500 C 342.586 452.650, 344.822 434.650, 347 416.500 C 349.178 398.350, 351.409 380.350, 351.957 376.500 C 352.505 372.650, 353.225 366.575, 353.557 363 C 353.889 359.425, 354.561 354.025, 355.052 351 C 355.542 347.975, 356.626 339.650, 357.460 332.500 C 358.295 325.350, 359.657 313.988, 360.489 307.250 C 361.320 300.512, 362.667 289.488, 363.482 282.750 C 364.297 276.012, 365.416 267.125, 365.967 263 C 366.519 258.875, 367.882 247.850, 368.996 238.500 C 370.110 229.150, 371.714 216.505, 372.560 210.401 C 373.407 204.296, 374.015 197.546, 373.912 195.401 C 373.810 193.255, 374.062 189.813, 374.474 187.750 C 375.198 184.122, 375.129 183.999, 372.361 183.955 C 370.788 183.930, 351.500 183.493, 329.500 182.985 C 307.500 182.477, 269.475 181.613, 245 181.065 C 220.525 180.517, 196.225 179.779, 191 179.426 L 181.500 178.782 178.123 186.141 M 411.145 190.500 C 410.558 193.250, 409.569 200.896, 408.949 207.491 C 408.328 214.086, 407.630 219.790, 407.397 220.166 C 407.165 220.542, 406.282 227.071, 405.436 234.675 C 402.575 260.384, 399.807 283.166, 397.865 297 C 397.286 301.125, 396.182 309.900, 395.412 316.500 C 392.733 339.450, 391.169 352.025, 387.947 376.500 C 387.368 380.900, 386.461 389, 385.931 394.500 C 385.401 400, 384.545 406.525, 384.029 409 C 383.513 411.475, 382.812 416.875, 382.471 421 C 382.131 425.125, 381.400 431.425, 380.848 435 C 379.962 440.736, 378.776 450.198, 376.086 473 C 375.049 481.793, 376.208 482.321, 391.714 480.111 C 395.608 479.556, 397.053 479.696, 397.424 480.663 C 397.867 481.818, 779.397 481.952, 780.530 480.798 C 780.802 480.521, 776.849 465.052, 768.444 433.500 C 766.539 426.350, 760.749 404.300, 755.577 384.500 C 732.822 297.387, 721.737 255.013, 720 248.500 C 718.973 244.650, 715.821 232.725, 712.996 222 C 710.171 211.276, 707.258 202.164, 706.523 201.753 C 705.788 201.341, 705.396 200.203, 705.652 199.223 C 707.373 192.643, 705.523 192.002, 684.775 191.979 C 674.174 191.968, 654.925 191.510, 642 190.961 C 629.075 190.413, 610.850 189.939, 601.500 189.909 C 592.150 189.879, 568.003 189.247, 547.840 188.505 C 527.677 187.763, 509.902 187.320, 508.340 187.520 C 506.778 187.720, 486.825 187.279, 464 186.540 C 407.872 184.722, 412.452 184.379, 411.145 190.500 M 389.727 519.332 C 390 520.524, 392.472 527.575, 395.221 535 C 401.347 551.545, 409.275 573.279, 410.907 578 C 412.104 581.463, 415.730 591.267, 425.148 616.503 C 427.816 623.654, 430 629.879, 430 630.336 C 430 630.793, 432.190 636.866, 434.868 643.833 C 437.545 650.800, 440.428 658.525, 441.276 661 C 442.754 665.318, 444.330 669.583, 455.139 698.511 C 457.812 705.667, 460 711.981, 460 712.541 C 460 713.102, 461.549 717.233, 463.441 721.720 C 465.334 726.208, 467.771 732.719, 468.857 736.190 C 469.943 739.660, 472.893 747.900, 475.413 754.500 C 477.934 761.100, 479.997 766.877, 479.998 767.338 C 479.999 767.799, 482.087 773.424, 484.638 779.838 C 487.189 786.252, 489.628 792.850, 490.058 794.500 C 490.488 796.150, 492.266 801.100, 494.009 805.500 C 495.752 809.900, 497.995 815.989, 498.993 819.031 C 499.992 822.073, 502.876 829.998, 505.404 836.641 C 507.932 843.285, 510 849.055, 510 849.464 C 510 849.873, 512.250 855.826, 515 862.694 C 517.750 869.562, 520 875.662, 520 876.248 C 520 876.835, 522.299 883.432, 525.110 890.908 C 530.264 904.620, 538.668 927.535, 540.912 934 C 541.580 935.925, 544.139 942.900, 546.599 949.500 C 557.080 977.621, 560.107 985.947, 560.478 987.672 C 560.695 988.677, 562.878 994.438, 565.329 1000.472 C 570.331 1012.784, 569.939 1012.847, 574.488 999 C 575.482 995.975, 576.653 993.264, 577.091 992.976 C 577.528 992.688, 603.743 927.888, 635.345 848.976 C 692.204 706.997, 762.529 530.956, 766.077 521.721 L 767.914 516.941 578.572 517.053 C 389.230 517.164, 389.230 517.164, 389.727 519.332" stroke="none" fill="#040404" fill-rule="evenodd"/><path d="M 201.274 190.378 C 200.245 191.687, 198.221 195.624, 196.777 199.128 C 191.286 212.447, 186.715 223.893, 182.451 235 C 180.023 241.325, 177.594 247.255, 177.055 248.178 C 175.886 250.176, 169 267.662, 169 268.632 C 169 269.003, 167.591 272.275, 165.869 275.903 C 164.146 279.531, 161.674 285.608, 160.375 289.406 C 159.076 293.205, 156.680 299.280, 155.051 302.906 C 153.422 306.533, 150.270 314.113, 148.045 319.750 C 138.981 342.720, 135.699 350.885, 132.406 358.665 C 130.506 363.156, 128.116 369.231, 127.095 372.165 C 126.074 375.099, 124.028 380.200, 122.547 383.500 C 121.066 386.800, 118.293 393.550, 116.385 398.500 C 114.477 403.450, 111.799 410.055, 110.434 413.179 C 109.069 416.302, 106.423 422.827, 104.555 427.679 C 100.707 437.670, 96.071 449.123, 88.917 466.314 C 86.213 472.812, 84 479.019, 84 480.108 C 84 483.306, 337.771 482.766, 338.952 479.566 C 339.371 478.430, 340.008 474.350, 340.368 470.500 C 340.727 466.650, 341.476 460.350, 342.031 456.500 C 342.586 452.650, 344.822 434.650, 347 416.500 C 349.178 398.350, 351.397 380.350, 351.932 376.500 C 352.466 372.650, 353.163 367.025, 353.481 364 C 353.798 360.975, 354.716 353.550, 355.521 347.500 C 356.325 341.450, 357.886 328.850, 358.989 319.500 C 360.093 310.150, 361.446 299.125, 361.997 295 C 363.174 286.197, 365.491 267.584, 367.600 250 C 368.425 243.125, 369.746 232.325, 370.537 226 C 375.377 187.269, 381.021 192.387, 332 191.057 C 309.725 190.452, 276.425 189.512, 258 188.968 C 206.295 187.440, 203.532 187.508, 201.274 190.378 M 766.337 202.665 C 760.736 203.259, 760.647 203.963, 764.440 217.637 C 766.251 224.162, 769.412 236.025, 771.466 244 C 775.540 259.823, 781.320 281.811, 785.530 297.500 C 787.006 303, 789.478 312.450, 791.024 318.500 C 792.570 324.550, 795.198 334.675, 796.864 341 C 798.531 347.325, 801.948 360.375, 804.457 370 C 806.966 379.625, 810.624 393.575, 812.587 401 C 819.104 425.652, 822.973 440.433, 824.498 446.500 C 827.767 459.502, 830.289 468.777, 832.182 474.750 L 834.163 481 965.641 481 L 1097.119 481 1083.940 455.250 C 1038.299 366.078, 1023.100 336.415, 1010.312 311.553 C 994.073 279.980, 994.472 281.864, 1003.640 280.062 C 1015.006 277.827, 1014.873 278.162, 1008.750 267.134 C 1006.413 262.924, 1002.967 256.256, 1001.093 252.316 C 997.144 244.010, 996.155 243.514, 987.584 245.535 C 977.069 248.015, 978.373 249.154, 967.643 228.127 C 955.022 203.396, 961.576 206.182, 914.500 205.530 C 895.250 205.263, 874.325 204.810, 868 204.522 C 861.675 204.235, 842.775 203.778, 826 203.508 C 809.225 203.238, 789.875 202.838, 783 202.620 C 776.125 202.401, 768.626 202.421, 766.337 202.665 M 456.213 526 C 402.759 526.565, 405.837 526.014, 409.191 534.424 C 410.304 537.216, 413.371 545.575, 416.007 553 C 418.642 560.425, 421.347 567.850, 422.018 569.500 C 422.689 571.150, 424.948 577.225, 427.038 583 C 429.127 588.775, 433.623 601.150, 437.028 610.500 C 440.434 619.850, 444.927 632.225, 447.014 638 C 449.101 643.775, 451.352 649.850, 452.016 651.500 C 452.680 653.150, 454.930 659.225, 457.016 665 C 459.101 670.775, 463.600 683.150, 467.014 692.500 C 470.427 701.850, 474.921 714.225, 477.001 720 C 479.081 725.775, 481.904 733.425, 483.274 737 C 484.644 740.575, 488.359 750.700, 491.529 759.500 C 494.699 768.300, 499.083 780.225, 501.271 786 C 503.459 791.775, 505.919 798.525, 506.738 801 C 507.556 803.475, 510.157 810.675, 512.518 817 C 518.765 833.743, 530.181 865.079, 536.015 881.500 C 537.578 885.900, 540.500 893.775, 542.507 899 C 544.515 904.225, 546.533 909.850, 546.991 911.500 C 547.766 914.294, 550.602 922.044, 561.442 951 C 563.810 957.325, 568.113 969.025, 571.003 977 C 573.893 984.975, 576.571 991.849, 576.955 992.276 C 577.339 992.703, 600.406 936.228, 628.217 866.776 C 656.027 797.324, 698.031 692.463, 721.558 633.751 C 745.086 575.039, 763.997 526.664, 763.584 526.251 C 762.745 525.412, 529.804 525.222, 456.213 526 M 837.871 525.787 C 826.495 526.166, 826.971 525.383, 808.396 574.321 C 806.555 579.173, 803.940 585.698, 802.585 588.821 C 798.866 597.397, 791.412 616.053, 786.337 629.484 C 783.847 636.075, 781.227 642.600, 780.516 643.984 C 779.805 645.368, 777.402 651.225, 775.178 657 C 770.466 669.228, 763.425 686.711, 758.061 699.500 C 755.984 704.450, 753.487 710.975, 752.510 714 C 751.534 717.025, 750.373 719.962, 749.930 720.527 C 749.488 721.092, 746.668 727.842, 743.665 735.527 C 738.375 749.064, 733.127 762.183, 728.876 772.500 C 727.743 775.250, 725.029 782.225, 722.843 788 C 720.658 793.775, 718.018 800.367, 716.977 802.650 C 714.620 807.816, 704.036 834.137, 698.942 847.500 C 696.845 853, 692.160 864.700, 688.530 873.500 C 684.900 882.300, 679.873 894.900, 677.359 901.500 C 674.845 908.100, 672.155 914.725, 671.382 916.223 C 670.609 917.721, 668.813 922.221, 667.390 926.223 C 665.968 930.225, 663.232 937.022, 661.312 941.326 C 659.391 945.631, 658.012 949.345, 658.248 949.581 C 658.484 949.817, 688.020 919.633, 723.884 882.505 C 759.748 845.377, 789.726 815, 790.501 815 C 791.277 815, 793.518 816.090, 795.481 817.423 C 801.693 821.638, 819.602 823.668, 824.524 820.715 C 828.561 818.292, 855.350 789.950, 854.426 789.078 C 853.648 788.344, 828.987 786, 822.034 786 C 817.274 786, 824.595 778.102, 943.537 654.921 C 1011.207 584.840, 1066.896 526.979, 1067.289 526.342 C 1067.937 525.294, 867.282 524.808, 837.871 525.787 M 83.750 526.689 C 80.037 527.660, 82.847 531.245, 107.426 556.896 C 131.366 581.881, 172.030 624.736, 181.888 635.372 C 187.052 640.942, 202.577 657.396, 216.388 671.936 C 264.376 722.455, 281.732 740.789, 322.967 784.522 C 345.774 808.710, 369.852 834.125, 376.474 841 C 388.730 853.725, 417.105 883.701, 465.407 934.951 C 480.206 950.653, 495.976 967.325, 500.451 972 C 504.927 976.675, 512.133 984.211, 516.464 988.747 C 526.301 999.046, 526.175 999.717, 518.391 978.440 C 514.781 968.573, 504.848 941.375, 496.316 918 C 487.785 894.625, 477.473 866.388, 473.402 855.250 C 469.331 844.112, 462.671 825.888, 458.603 814.750 C 454.534 803.612, 442.327 770.200, 431.476 740.500 C 420.625 710.800, 406.901 673.225, 400.978 657 C 395.056 640.775, 385.029 613.325, 378.697 596 C 372.365 578.675, 364.658 557.525, 361.570 549 C 358.481 540.475, 355.222 531.813, 354.325 529.750 L 352.696 526 219.098 526.116 C 145.619 526.180, 84.713 526.438, 83.750 526.689" stroke="none" fill="#59c4fb" fill-rule="evenodd"/></svg>