<?xml version="1.0" standalone="no"?>
<!DOCTYPE svg PUBLIC "-//W3C//DTD SVG 20010904//EN"
 "http://www.w3.org/TR/2001/REC-SVG-20010904/DTD/svg10.dtd">
<svg version="1.0" xmlns="http://www.w3.org/2000/svg"
 width="700.000000pt" height="700.000000pt" viewBox="0 0 700.000000 700.000000"
 preserveAspectRatio="xMidYMid meet">
<metadata>
Created by potrace 1.14, written by Peter Selinger 2001-2017
</metadata>
<g transform="translate(0.000000,700.000000) scale(0.100000,-0.100000)"
fill="#000000" stroke="none">
<path d="M966 6100 c-20 -18 -45 -49 -55 -69 -10 -20 -94 -223 -186 -451 -224
-558 -546 -1357 -606 -1505 -63 -155 -64 -185 -7 -251 58 -67 229 -246 250
-262 16 -11 36 -9 133 18 63 18 115 34 115 36 0 3 -48 56 -106 119 l-106 115
867 -2 867 -3 12 -35 c7 -19 221 -604 475 -1300 255 -696 489 -1337 521 -1425
32 -88 62 -169 66 -180 5 -14 -3 -10 -31 15 -37 35 -601 628 -1620 1705 -775
819 -761 805 -782 805 -23 0 -212 -46 -219 -53 -3 -3 -2 -12 3 -21 4 -8 231
-250 503 -538 272 -287 742 -783 1044 -1103 1081 -1141 1258 -1325 1286 -1340
77 -40 109 -17 386 275 71 74 365 380 655 680 598 621 619 643 619 659 0 7
-26 11 -77 11 -55 0 -90 6 -120 20 l-42 19 -378 -387 c-526 -538 -676 -689
-670 -672 3 8 263 657 578 1442 l573 1428 814 0 815 0 -44 -47 c-23 -27 -315
-331 -648 -678 -915 -952 -860 -893 -840 -906 8 -5 34 -9 58 -9 24 0 73 -5
108 -11 56 -10 66 -9 91 7 15 11 146 143 292 294 146 151 393 408 550 570 436
451 761 790 803 838 50 56 48 85 -9 203 -84 173 -586 1154 -610 1191 -27 43
-34 43 -153 2 -56 -19 -66 -25 -64 -43 2 -12 136 -281 298 -597 162 -317 295
-580 295 -585 0 -10 -1473 -13 -1618 -3 l-92 7 0 32 c0 17 -38 175 -84 351
-245 930 -346 1321 -346 1337 0 21 1 21 665 2 275 -8 523 -15 551 -15 l50 0
67 -127 c94 -182 76 -167 185 -154 111 14 124 18 117 41 -3 9 -53 110 -111
224 -85 165 -112 210 -136 222 -31 16 -177 22 -1098 44 -245 5 -616 15 -825
20 -209 6 -652 17 -985 25 -333 8 -765 20 -960 25 -195 5 -510 12 -700 16
l-346 7 -38 -33z m809 -210 c220 -6 424 -10 454 -10 l53 0 -6 -67 c-23 -229
-210 -1720 -218 -1728 -10 -11 -981 -22 -1435 -17 -199 2 -253 5 -253 16 0 12
167 428 572 1429 l161 398 136 -6 c75 -3 316 -10 536 -15z m1620 -40 c176 -5
447 -12 602 -16 222 -5 285 -10 294 -21 7 -7 9 -16 6 -19 -3 -3 1 -20 8 -39 8
-18 100 -360 205 -761 105 -401 199 -760 210 -799 10 -38 21 -83 24 -98 l7
-28 -1226 1 c-1066 1 -1227 3 -1232 16 -5 13 20 242 47 439 6 39 26 198 45
355 86 709 115 947 120 969 l6 23 282 -6 c155 -4 426 -11 602 -16z m1275
-2005 c0 -10 -1188 -2972 -1198 -2985 -8 -12 -22 24 -452 1205 -187 512 -195
533 -329 900 -280 763 -317 870 -307 877 12 8 2286 11 2286 3z"/>
</g>
</svg>
